<?xml version="1.0" standalone="no"?><!DOCTYPE svg PUBLIC "-//W3C//DTD SVG 1.1//EN" "http://www.w3.org/Graphics/SVG/1.1/DTD/svg11.dtd"><svg t="1649096552417" class="icon" viewBox="0 0 1024 1024" version="1.1" xmlns="http://www.w3.org/2000/svg" p-id="13808" xmlns:xlink="http://www.w3.org/1999/xlink" width="200" height="200"><defs><style type="text/css">@font-face { font-family: feedback-iconfont; src: url("//at.alicdn.com/t/font_1031158_u69w8yhxdu.woff2?t=1630033759944") format("woff2"), url("//at.alicdn.com/t/font_1031158_u69w8yhxdu.woff?t=1630033759944") format("woff"), url("//at.alicdn.com/t/font_1031158_u69w8yhxdu.ttf?t=1630033759944") format("truetype"); }
</style></defs><path d="M325.12 202.922667a35.328 35.328 0 0 0-51.2 0L11.008 458.666667a35.328 35.328 0 0 0 0 51.2L266.666667 765.44a35.328 35.328 0 0 0 51.2 0 35.328 35.328 0 0 0 0-51.2L91.306667 488.021333l233.813333-233.813333a62.378667 62.378667 0 0 0 0-51.2z m262.997333 0c-14.592 0-36.522667 7.338667-43.776 29.269333L412.757333 729.002667c-7.253333 21.930667 7.338667 36.522667 29.269334 43.861333 21.930667 7.253333 36.522667-7.338667 43.861333-29.269333l131.413333-496.810667c7.338667-14.592-7.253333-36.522667-29.184-43.861333z m431.104 255.744L763.477333 202.922667a35.328 35.328 0 0 0-51.2 0 35.328 35.328 0 0 0 0 51.2l226.56 233.813333-233.813333 233.813333a35.328 35.328 0 0 0 0 51.114667 35.328 35.328 0 0 0 51.2 0l255.658667-255.744c14.592-14.592 14.592-43.861333 7.338666-58.453333z" p-id="13809" fill="#1296db" data-spm-anchor-id="a313x.7781069.0.i3" class=""></path></svg>