<?xml version="1.0" standalone="no"?><!DOCTYPE svg PUBLIC "-//W3C//DTD SVG 1.1//EN" "http://www.w3.org/Graphics/SVG/1.1/DTD/svg11.dtd"><svg t="1649098573549" class="icon" viewBox="0 0 1024 1024" version="1.1" xmlns="http://www.w3.org/2000/svg" p-id="18299" xmlns:xlink="http://www.w3.org/1999/xlink" width="200" height="200"><defs><style type="text/css">@font-face { font-family: feedback-iconfont; src: url("//at.alicdn.com/t/font_1031158_u69w8yhxdu.woff2?t=1630033759944") format("woff2"), url("//at.alicdn.com/t/font_1031158_u69w8yhxdu.woff?t=1630033759944") format("woff"), url("//at.alicdn.com/t/font_1031158_u69w8yhxdu.ttf?t=1630033759944") format("truetype"); }
</style></defs><path d="M372.48 557.226667c25.6 0 46.506667-20.906667 46.506667-46.506667v-324.266667c0-51.2 41.813333-93.013333 93.013333-93.013333s93.013333 41.813333 93.013333 93.013333v46.506667c0 25.6 20.906667 46.506667 46.506667 46.506667s46.506667-20.906667 46.506667-46.506667v-46.933333C698.026667 83.626667 614.826667 0 512 0S325.973333 83.626667 325.973333 186.026667v324.266666c0 26.026667 20.48 46.933333 46.506667 46.933334zM651.52 465.493333c-25.6 0-46.506667 20.906667-46.506667 46.506667v325.973333c0 51.2-41.813333 93.013333-93.013333 93.013334s-93.013333-41.813333-93.013333-93.013334v-47.36c0-25.6-20.906667-46.506667-46.506667-46.506666s-46.506667 20.906667-46.506667 46.506666v47.36C325.973333 940.373333 409.173333 1024 512 1024s186.026667-83.626667 186.026667-186.026667V512c0-25.6-20.48-46.506667-46.506667-46.506667z" p-id="18300" data-spm-anchor-id="a313x.7781069.0.i9" class="" fill="#50627f"></path><path d="M558.506667 651.52c0-25.6-20.906667-46.506667-46.506667-46.506667H186.026667c-51.2 0-92.586667-41.813333-92.586667-93.013333s41.386667-93.013333 92.586667-93.013333h46.506666c25.6 0 46.506667-20.906667 46.506667-46.506667 0-25.6-20.906667-46.506667-46.506667-46.506667H186.026667C83.2 325.973333 0 409.173333 0 512s83.2 186.026667 186.026667 186.026667H512c25.6 0 46.506667-20.48 46.506667-46.506667zM837.546667 325.973333H512c-25.6 0-46.506667 20.906667-46.506667 46.506667 0 25.6 20.906667 46.506667 46.506667 46.506667h325.546667c51.626667 0 93.44 41.813333 93.44 93.013333s-41.813333 93.013333-93.44 93.013333h-44.8c-25.6 0-46.506667 20.906667-46.506667 46.506667 0 25.6 20.906667 46.506667 46.506667 46.506667h44.8C940.373333 698.026667 1024 614.4 1024 512s-83.626667-186.026667-186.453333-186.026667z" p-id="18301" data-spm-anchor-id="a313x.7781069.0.i8" class="selected" fill="#e0620d"></path></svg>