<?xml version="1.0" standalone="no"?><!DOCTYPE svg PUBLIC "-//W3C//DTD SVG 1.1//EN" "http://www.w3.org/Graphics/SVG/1.1/DTD/svg11.dtd"><svg t="1649179625871" class="icon" viewBox="0 0 1024 1024" version="1.1" xmlns="http://www.w3.org/2000/svg" p-id="15681" xmlns:xlink="http://www.w3.org/1999/xlink" width="200" height="200"><defs><style type="text/css">@font-face { font-family: feedback-iconfont; src: url("//at.alicdn.com/t/font_1031158_u69w8yhxdu.woff2?t=1630033759944") format("woff2"), url("//at.alicdn.com/t/font_1031158_u69w8yhxdu.woff?t=1630033759944") format("woff"), url("//at.alicdn.com/t/font_1031158_u69w8yhxdu.ttf?t=1630033759944") format("truetype"); }
</style></defs><path d="M871.808 451.84l-302.72-272.469333a85.333333 85.333333 0 0 0-114.176 0L152.192 451.84a85.333333 85.333333 0 0 0-3.242667 123.733333l302.72 302.762667a85.333333 85.333333 0 0 0 120.661334 0l302.72-302.72a85.333333 85.333333 0 0 0-3.242667-123.776z" fill="#7EA4F9" p-id="15682"></path><path d="M445.354667 682.666667l49.962666-276.650667h68.352c15.573333 0 24.448 1.109333 26.666667 3.328 4.437333 3.328 6.656 7.210667 6.656 11.648 0 2.218667-1.664 11.690667-4.992 28.330667l-6.656 38.357333c-1.109333 11.093333-4.437333 18.346667-10.026667 21.674667-5.546667 4.437333-13.866667 6.656-25.002666 6.656h-43.306667l-6.656 31.658666L560.341333 682.666667H618.666667l-56.661334-126.677334c21.12 0 36.693333-2.218667 46.677334-6.656a42.496 42.496 0 0 0 21.632-20.010666c4.48-7.765333 7.808-17.749333 10.026666-29.994667l9.984-50.005333a340.053333 340.053333 0 0 0 4.992-50.005334c0-11.093333-2.773333-19.968-8.32-26.666666a35.925333 35.925333 0 0 0-21.674666-9.984 288.981333 288.981333 0 0 1-23.338667-3.328h-156.629333L388.608 682.666667h56.704z" fill="#FFFFFF" p-id="15683"></path></svg>